<?xml version="1.0" encoding="utf-8"?>
<svg version="1.1" width="152.76px" height="65.99px" x="0px" y="0px" viewBox="0 0 152.76 65.99" xmlns="http://www.w3.org/2000/svg" xml:space="preserve">
<style type="text/css">
<![CDATA[
	.st0{fill:#FFFFFF;}
]]>
</style>
<path class="st0" d="M147.11,21.66c-1.83-2.36-4.36-4.12-7.58-5.26c-2.65-0.9-5.73-1.36-9.23-1.41c-10.76-0.08-19.09-0.08-25,0
	c-2.23,0.03-4.39,0.25-6.48,0.66l6.93-10.35c-0.75-1.62-1.98-2.68-3.68-3.18C100.35,1.37,98.57,1,96.69,1
	C78.67,1,69.48,1.02,69.1,1.06C62.4,1.6,55.43,6.51,48.19,15.79l-6.05,7.86c-1.75-0.12-3.48-0.19-5.18-0.19
	c-13.9,0-24.53,3.7-31.9,11.11c-2.37,2.37-3.56,5.06-3.56,8.05c0,3.54,1.6,6.16,4.81,7.87c2.21,1.17,4.89,1.69,8.05,1.56
	c4.91-0.04,9.65-0.08,14.23-0.13c4.04-0.42,8.47-2.37,13.3-5.87c4.04-2.95,7.55-6.37,10.55-10.24l5.68-7.3
	c3.37,0.04,6.55,0.77,9.55,2.19l-2.93,4.93c-1.58,2.62-2.37,5.27-2.37,7.93c0,2.29,0.66,4.11,1.97,5.46
	c1.31,1.35,2.92,1.9,4.84,1.65h24.28c1.12,0,2.19-0.48,3.18-1.44l2.93-4.12c-2.12,0.92-4.06,1.39-5.81,1.44
	c-0.35,0.01-0.67,0.01-1,0.02c-1.44-0.33-2.6-1.07-3.48-2.21c-0.9-1.16-1.34-2.48-1.34-3.94c0-0.49,0.04-0.96,0.12-1.41
	c1.26-5.67,4.77-10.49,10.51-14.49c5.46-3.83,11.31-5.85,17.54-6.05c1.26-0.04,2.3-0.06,3.12-0.06c9.09,0,14,2.15,14.73,6.43
	c0.08,0.53,0.12,1.08,0.12,1.65c0,3.23-1.31,6.54-3.94,9.93c-2.63,3.39-5.8,5.8-9.51,7.23c-1.75,0.65-3.14,0.98-4.16,0.98
	c-0.86,0-1.28-0.23-1.28-0.7c0-0.21,0.06-0.45,0.18-0.7l8.68-14.37c1.59-2.69,3.26-4.89,5.01-6.6l-8.97,0.12
	c-3.58,2.65-6.7,6.12-9.34,10.41l-9.73,15.52c-2.12,3.38-4.71,6.58-7.77,9.59c-1.88,1.83-4.87,2.75-8.99,2.75l-2.08,3.24
	c4.28,0.08,7.46,0.12,9.54,0.12c5.46,0.12,9.92-1.65,13.39-5.32c2.65-2.77,5.4-6.32,8.25-10.64c1.88,0.2,3.77,0.31,5.69,0.31
	c6.68,0,12.43-0.98,17.24-2.93c6.4-2.53,10.62-6.6,12.65-12.23c0.49-1.35,0.73-2.73,0.73-4.16
	C149.68,26.37,148.82,23.9,147.11,21.66z M28.78,39.95c-5.37,5.24-9.95,7.91-13.73,7.99c-2.08,0.04-3.7-0.17-4.87-0.63
	c-1.42-0.58-2.12-1.85-2.12-3.81c0-3.2,2.25-6.51,6.74-9.92c2.58-1.96,5.6-3.5,9.05-4.62c3.25-1.08,6.37-1.62,9.36-1.62h5.81
	C36.31,31.75,32.9,35.96,28.78,39.95z M60.8,24.28C65.09,18,70.33,12.4,76.53,7.49c2.41-1.91,4.51-2.87,6.3-2.87
	c0.83,0,1.62,0.21,2.37,0.62L70.23,26.53C67.19,25.28,64.05,24.53,60.8,24.28z"/>
</svg>
