<?xml version="1.0" encoding="utf-8"?>
<svg version="1.1"  width="23.83px" height="24.67px" x="0px" y="0px" xmlns="http://www.w3.org/2000/svg" viewBox="0 0 23.83 24.67" xml:space="preserve">
<style type="text/css">
<![CDATA[
	.st0{fill:#FFFFFF;}
]]>
</style>
<path class="st0" d="M22.97,21.75l-7.72-7.72c1.14-1.42,1.82-3.22,1.82-5.17c0-4.58-3.72-8.3-8.3-8.3s-8.3,3.72-8.3,8.3
	c0,4.58,3.72,8.3,8.3,8.3c1.54,0,2.98-0.43,4.22-1.17l7.87,7.87L22.97,21.75z M2.28,8.86c0-3.58,2.92-6.5,6.5-6.5s6.5,2.92,6.5,6.5
	c0,3.58-2.92,6.5-6.5,6.5S2.28,12.44,2.28,8.86z"/>
</svg>
